<mxfile host="65bd71144e">
    <diagram id="VUtRJIigfLcHmEj-g6Eo" name="Страница 1">
        <mxGraphModel dx="1004" dy="1645" grid="0" gridSize="10" guides="1" tooltips="1" connect="1" arrows="1" fold="1" page="1" pageScale="1" pageWidth="827" pageHeight="1169" background="#33001A" math="0" shadow="1">
            <root>
                <mxCell id="0"/>
                <mxCell id="1" parent="0"/>
                <mxCell id="ftTkDCiJ7V1NYpAi-9TC-4" value="" style="edgeStyle=orthogonalEdgeStyle;rounded=0;orthogonalLoop=1;jettySize=auto;html=1;" parent="1" source="gEt6DfoCCLrX2pUi7ecO-1" target="ftTkDCiJ7V1NYpAi-9TC-3" edge="1">
                    <mxGeometry relative="1" as="geometry"/>
                </mxCell>
                <mxCell id="gEt6DfoCCLrX2pUi7ecO-1" value="Start" style="ellipse;whiteSpace=wrap;html=1;" parent="1" vertex="1">
                    <mxGeometry x="340" y="-1050" width="120" height="80" as="geometry"/>
                </mxCell>
                <mxCell id="ftTkDCiJ7V1NYpAi-9TC-12" value="" style="edgeStyle=orthogonalEdgeStyle;rounded=0;orthogonalLoop=1;jettySize=auto;html=1;" parent="1" source="ftTkDCiJ7V1NYpAi-9TC-3" target="ftTkDCiJ7V1NYpAi-9TC-9" edge="1">
                    <mxGeometry relative="1" as="geometry"/>
                </mxCell>
                <mxCell id="ftTkDCiJ7V1NYpAi-9TC-3" value="string[] initialArray&lt;br&gt;string[] newArray&lt;br&gt;count = 0&lt;br&gt;i = 0" style="shape=parallelogram;perimeter=parallelogramPerimeter;whiteSpace=wrap;html=1;fixedSize=1;" parent="1" vertex="1">
                    <mxGeometry x="330" y="-940" width="140" height="80" as="geometry"/>
                </mxCell>
                <mxCell id="ftTkDCiJ7V1NYpAi-9TC-17" value="YES" style="edgeStyle=orthogonalEdgeStyle;rounded=0;orthogonalLoop=1;jettySize=auto;html=1;" parent="1" source="ftTkDCiJ7V1NYpAi-9TC-9" target="ftTkDCiJ7V1NYpAi-9TC-15" edge="1">
                    <mxGeometry relative="1" as="geometry"/>
                </mxCell>
                <mxCell id="ftTkDCiJ7V1NYpAi-9TC-25" value="NO" style="edgeStyle=orthogonalEdgeStyle;rounded=0;orthogonalLoop=1;jettySize=auto;html=1;" parent="1" source="ftTkDCiJ7V1NYpAi-9TC-9" target="ftTkDCiJ7V1NYpAi-9TC-24" edge="1">
                    <mxGeometry relative="1" as="geometry"/>
                </mxCell>
                <mxCell id="ftTkDCiJ7V1NYpAi-9TC-9" value="i &amp;lt; initialArray.Length" style="shape=hexagon;perimeter=hexagonPerimeter2;whiteSpace=wrap;html=1;fixedSize=1;" parent="1" vertex="1">
                    <mxGeometry x="330" y="-820" width="140" height="60" as="geometry"/>
                </mxCell>
                <mxCell id="ftTkDCiJ7V1NYpAi-9TC-19" value="YES" style="edgeStyle=orthogonalEdgeStyle;rounded=0;orthogonalLoop=1;jettySize=auto;html=1;" parent="1" source="ftTkDCiJ7V1NYpAi-9TC-15" target="ftTkDCiJ7V1NYpAi-9TC-18" edge="1">
                    <mxGeometry relative="1" as="geometry"/>
                </mxCell>
                <mxCell id="ftTkDCiJ7V1NYpAi-9TC-22" value="NO" style="edgeStyle=orthogonalEdgeStyle;rounded=0;orthogonalLoop=1;jettySize=auto;html=1;" parent="1" source="ftTkDCiJ7V1NYpAi-9TC-15" target="ftTkDCiJ7V1NYpAi-9TC-20" edge="1">
                    <mxGeometry relative="1" as="geometry"/>
                </mxCell>
                <mxCell id="ftTkDCiJ7V1NYpAi-9TC-15" value="array[i].Length &amp;lt;= 3" style="rhombus;whiteSpace=wrap;html=1;" parent="1" vertex="1">
                    <mxGeometry x="310" y="-700" width="180" height="80" as="geometry"/>
                </mxCell>
                <mxCell id="ftTkDCiJ7V1NYpAi-9TC-21" value="" style="edgeStyle=orthogonalEdgeStyle;rounded=0;orthogonalLoop=1;jettySize=auto;html=1;" parent="1" source="ftTkDCiJ7V1NYpAi-9TC-18" target="ftTkDCiJ7V1NYpAi-9TC-20" edge="1">
                    <mxGeometry relative="1" as="geometry"/>
                </mxCell>
                <mxCell id="ftTkDCiJ7V1NYpAi-9TC-18" value="newArray[count] = initialArray[i]&lt;br&gt;count++" style="rounded=0;whiteSpace=wrap;html=1;" parent="1" vertex="1">
                    <mxGeometry x="300" y="-560" width="200" height="60" as="geometry"/>
                </mxCell>
                <mxCell id="ftTkDCiJ7V1NYpAi-9TC-23" style="edgeStyle=orthogonalEdgeStyle;rounded=0;orthogonalLoop=1;jettySize=auto;html=1;exitX=0.5;exitY=0;exitDx=0;exitDy=0;entryX=0;entryY=0.5;entryDx=0;entryDy=0;" parent="1" source="ftTkDCiJ7V1NYpAi-9TC-20" target="ftTkDCiJ7V1NYpAi-9TC-9" edge="1">
                    <mxGeometry relative="1" as="geometry"/>
                </mxCell>
                <mxCell id="ftTkDCiJ7V1NYpAi-9TC-20" value="i++" style="rounded=0;whiteSpace=wrap;html=1;" parent="1" vertex="1">
                    <mxGeometry x="150" y="-695" width="80" height="70" as="geometry"/>
                </mxCell>
                <mxCell id="ftTkDCiJ7V1NYpAi-9TC-27" value="" style="edgeStyle=orthogonalEdgeStyle;rounded=0;orthogonalLoop=1;jettySize=auto;html=1;" parent="1" source="ftTkDCiJ7V1NYpAi-9TC-24" target="ftTkDCiJ7V1NYpAi-9TC-26" edge="1">
                    <mxGeometry relative="1" as="geometry"/>
                </mxCell>
                <mxCell id="ftTkDCiJ7V1NYpAi-9TC-24" value="Print newArray" style="shape=parallelogram;perimeter=parallelogramPerimeter;whiteSpace=wrap;html=1;fixedSize=1;" parent="1" vertex="1">
                    <mxGeometry x="540" y="-820" width="120" height="60" as="geometry"/>
                </mxCell>
                <mxCell id="ftTkDCiJ7V1NYpAi-9TC-26" value="Finish" style="ellipse;whiteSpace=wrap;html=1;" parent="1" vertex="1">
                    <mxGeometry x="540" y="-700" width="120" height="80" as="geometry"/>
                </mxCell>
            </root>
        </mxGraphModel>
    </diagram>
</mxfile>